<svg xmlns="http://www.w3.org/2000/svg" viewBox="0 0 300 300" enable-background="new 0 0 300 300"><path fill="#ed1c24" d="m150.3 1.358c-82.23 0-148.96 66.72-148.96 149 0 82.27 66.729 149 148.96 149 82.32 0 149.02-66.73 149.02-149 0-82.28-66.68-149-149.02-149m69.91 169.31l-29.765-38.22c-3.495-4.383-7.477-4.402-11 0-1.185 1.547-24.03 31.808-24.03 31.808-3.552 4.488-6.961 4.488-10.475 0 0 0-23.395-30.424-24.446-31.808-3.408-4.316-7.228-4.402-10.952 0l-30.08 38.22h140.74v44.44h-140.77v-44.44h.019l-.028-60.694c0 0 28.685-35.953 30.509-38.13 3.238-3.925 7.143-3.925 10.332-.029 1.433 1.872 24.981 32.439 24.981 32.439 1.844 2.34 3.4 3.037 5.05 3.065 1.69-.038 3.17-.621 5.01-3.065 0 0 23.51-30.91 24.742-32.4 3.181-3.944 7.02-3.944 10.19-.019l29.974 37.948v60.894"/></svg>